<svg xmlns="http://www.w3.org/2000/svg" width="1280" height="720" viewBox="0 0 1280 720">
  <defs>
    <linearGradient id="bg" x1="0" x2="1" y1="0" y2="1">
      <stop offset="0" stop-color="#08111f"/>
      <stop offset="0.55" stop-color="#64748b" stop-opacity="0.68"/>
      <stop offset="1" stop-color="#2563eb"/>
    </linearGradient>
    <filter id="shadow" x="-20%" y="-20%" width="140%" height="140%">
      <feDropShadow dx="0" dy="18" stdDeviation="22" flood-color="#000" flood-opacity="0.35"/>
    </filter>
  </defs>
  <rect width="1280" height="720" fill="url(#bg)"/>
  <circle cx="1040" cy="120" r="220" fill="#fff" opacity="0.08"/>
  <circle cx="140" cy="640" r="260" fill="#fff" opacity="0.06"/>
  <g filter="url(#shadow)">
    <rect x="92" y="86" width="1096" height="548" rx="38" fill="#0f172a" opacity="0.88"/>
    <rect x="132" y="130" width="1016" height="70" rx="20" fill="#1e293b"/>
    <circle cx="170" cy="165" r="10" fill="#ef4444"/>
    <circle cx="202" cy="165" r="10" fill="#f59e0b"/>
    <circle cx="234" cy="165" r="10" fill="#22c55e"/>
    <rect x="132" y="236" width="404" height="300" rx="24" fill="#ffffff" opacity="0.09"/>
    <rect x="576" y="236" width="250" height="126" rx="22" fill="#ffffff" opacity="0.11"/>
    <rect x="862" y="236" width="286" height="126" rx="22" fill="#ffffff" opacity="0.11"/>
    <rect x="576" y="400" width="572" height="136" rx="22" fill="#ffffff" opacity="0.09"/>
    <text x="174" y="342" font-family="Arial, sans-serif" font-size="104">🚀</text>
    <text x="174" y="420" font-family="Arial, sans-serif" font-size="48" font-weight="800" fill="#ffffff">Nová aplikace</text>
    <text x="174" y="470" font-family="Arial, sans-serif" font-size="28" fill="#cbd5e1">Vlož vlastní screenshot</text>
    <rect x="174" y="506" width="178" height="42" rx="21" fill="#2563eb" opacity="0.95"/>
    <text x="214" y="534" font-family="Arial, sans-serif" font-size="20" font-weight="700" fill="#ffffff">Otevřít</text>
    <rect x="620" y="282" width="162" height="22" rx="11" fill="#bfdbfe" opacity="0.7"/>
    <rect x="620" y="322" width="114" height="18" rx="9" fill="#bfdbfe" opacity="0.35"/>
    <rect x="906" y="282" width="198" height="22" rx="11" fill="#bfdbfe" opacity="0.7"/>
    <rect x="906" y="322" width="134" height="18" rx="9" fill="#bfdbfe" opacity="0.35"/>
    <polyline points="628,490 710,454 780,478 864,430 984,452 1102,396" fill="none" stroke="#7dd3fc" stroke-width="12" stroke-linecap="round" stroke-linejoin="round"/>
  </g>
</svg>